<?xml version="1.0" encoding="utf-8"?>
<!-- Generator: Adobe Illustrator 24.3.0, SVG Export Plug-In . SVG Version: 6.00 Build 0)  -->
<svg version="1.1" id="Layer_1" xmlns="http://www.w3.org/2000/svg" xmlns:xlink="http://www.w3.org/1999/xlink" x="0px" y="0px"
	 viewBox="0 0 137.5 41.5" style="enable-background:new 0 0 137.5 41.5;" xml:space="preserve">
<style type="text/css">
	.st0{clip-path:url(#SVGID_2_);}
	.st1{fill:#f59e0b;}
	.st2{clip-path:url(#SVGID_4_);}
	.st3{fill:#FFFFFF;}
</style>
<g id="_1a3652a1e8">
	<g>
		<defs>
			<rect id="SVGID_1_" x="106.7" y="0.2" width="18.7" height="41"/>
		</defs>
		<clipPath id="SVGID_2_">
			<use xlink:href="#SVGID_1_"  style="overflow:visible;"/>
		</clipPath>
		<g class="st0">
			<path class="st1" d="M116.3,41.2c-5.2,0-9.1-8.8-9.1-20.5s3.9-20.5,9.1-20.5s9.1,8.8,9.1,20.5S121.5,41.2,116.3,41.2z M116.3,2.9
				c-3,0-6.4,7.3-6.4,17.8s3.4,17.8,6.4,17.8s6.4-7.3,6.4-17.8S119.4,2.9,116.3,2.9z"/>
		</g>
	</g>
	<g>
		<defs>
			<rect id="SVGID_3_" x="95.9" y="11.1" width="41" height="20"/>
		</defs>
		<clipPath id="SVGID_4_">
			<use xlink:href="#SVGID_3_"  style="overflow:visible;"/>
		</clipPath>
		<g class="st2">
			<path class="st1" d="M116.3,29.8c-11.7,0-20.4-3.9-20.4-9.1s8.8-9.1,20.4-9.1s20.4,3.9,20.4,9.1S128,29.8,116.3,29.8z
				 M116.3,14.3c-10.5,0-17.8,3.4-17.8,6.4s7.3,6.4,17.8,6.4s17.8-3.4,17.8-6.4S126.8,14.3,116.3,14.3L116.3,14.3z"/>
		</g>
	</g>
	<path class="st3" d="M126.8,36.5c-4.5,0-11.1-3.7-16.9-9.5c-3.4-3.3-6.2-7.3-8.2-11.6c-1.8-4.1-1.7-7.4,0.2-9.3
		c1.1-1,2.5-1.5,4-1.4c4.5,0,11.1,3.7,16.9,9.5c8.2,8.2,11.7,17.2,8,20.9C129.7,36.1,128.3,36.6,126.8,36.5z M105.8,7.3
		c-0.8-0.1-1.5,0.2-2.1,0.7c-1,1-0.9,3.4,0.4,6.4c1.9,4,4.5,7.7,7.7,10.8c5.2,5.2,11.3,8.7,15,8.7c0.8,0.1,1.5-0.2,2.1-0.7
		c2.2-2.1-0.6-9.7-8-17.1C115.6,10.8,109.6,7.3,105.8,7.3z"/>
	<path class="st3" d="M105.8,36.5c-1.5,0.1-2.9-0.4-4-1.5c-3.6-3.7-0.2-12.6,8.1-20.9c5.8-5.8,12.4-9.5,16.9-9.5
		c1.5-0.1,2.9,0.4,4,1.4c1.9,1.9,1.9,5.2,0.2,9.3c-2,4.3-4.8,8.3-8.2,11.6C117,32.8,110.3,36.5,105.8,36.5z M126.8,7.3
		c-3.8,0-9.8,3.5-15,8.7c-7.4,7.4-10.2,15-8.1,17.1c0.6,0.5,1.3,0.8,2.1,0.7c3.8,0,9.8-3.5,15-8.7c3.2-3.1,5.8-6.7,7.7-10.8
		c1.3-3,1.4-5.4,0.4-6.4C128.3,7.5,127.6,7.3,126.8,7.3z"/>
	<path class="st3" d="M119.5,20.7c0,1.9-1.6,3.5-3.5,3.5s-3.5-1.6-3.5-3.5c0-1.9,1.6-3.5,3.5-3.5c0,0,0,0,0,0
		C118,17.2,119.5,18.8,119.5,20.7C119.5,20.7,119.5,20.7,119.5,20.7z"/>
	<path class="st3" d="M5.1,15V27c0,0.7,0.1,1.4,0.3,2c0.2,0.5,0.6,0.9,1.1,1.2H0.7C1.1,30,1.5,29.5,1.8,29c0.2-0.6,0.4-1.3,0.3-2
		V15.8c0-0.7-0.1-1.4-0.3-2.1c-0.2-0.5-0.6-0.9-1.1-1.1h7.2c-0.1,0.1-0.1,0.2-0.1,0.3c0,0.1,0,0.2,0,0.3c0,0.1,0,0.2,0,0.3
		c0,0.1,0.1,0.2,0.1,0.4L13.3,27l5.5-13.2c0-0.1,0.1-0.2,0.1-0.3c0-0.1,0-0.1,0-0.2c0-0.1,0-0.2,0-0.2c0-0.1-0.1-0.3-0.2-0.4H26
		c-0.5,0.2-0.9,0.6-1.1,1.1c-0.2,0.6-0.4,1.3-0.3,2V27c0,0.7,0.1,1.3,0.3,1.9c0.2,0.5,0.6,0.9,1,1.2H20c0.4-0.3,0.8-0.7,1-1.2
		c0.2-0.6,0.3-1.3,0.3-1.9V15.3l-6,13.8l-0.1,0.1c-0.1,0.1-0.1,0.3-0.1,0.5c0,0.1,0,0.2,0,0.2c0,0.1,0.1,0.2,0.1,0.3h-4.1
		c0-0.1,0.1-0.2,0.1-0.3c0,0,0-0.1,0-0.2c0-0.2-0.1-0.4-0.2-0.6V29L5.1,15z"/>
	<path class="st3" d="M27.8,30.2c0.4-0.3,0.8-0.7,1-1.1c0.2-0.6,0.4-1.3,0.3-2V15.8c0-0.7-0.1-1.3-0.3-2c-0.2-0.5-0.6-0.9-1-1.1h18
		c-0.1,0.3-0.1,0.5-0.2,0.6c0,0.1,0,0.2,0,0.3c0.1,0.4,0.2,0.8,0.3,1.2c0.2,0.6,0.4,1.2,0.5,1.6c-0.8-0.5-1.7-0.8-2.7-1
		c-1.3-0.2-2.5-0.3-3.8-0.3h-7.4v4.7h8.3c0.4,0,0.8,0,1.2-0.1c0.4-0.1,0.8-0.2,1.1-0.3l-1.2,2c-0.2,0.3-0.4,0.5-0.7,0.7
		c-0.3,0.2-0.7,0.2-1.1,0.2h-7.6v5.5h7.6c1.3,0,2.7-0.1,4-0.5c1-0.2,2-0.7,2.9-1.3c-0.2,0.4-0.4,1-0.7,1.7c-0.2,0.5-0.4,1-0.5,1.5
		c0,0.2,0,0.3,0,0.5c0,0.2,0.1,0.4,0.1,0.6L27.8,30.2z"/>
	<path class="st3" d="M53.2,20.8h5.6c1.2,0.1,2.5-0.1,3.6-0.6c0.7-0.5,1.1-1.3,1.1-2.1c0.1-0.8-0.3-1.7-1-2.1
		c-1.1-0.5-2.4-0.7-3.6-0.6h-5.7V20.8z M53.2,27.1c0,0.7,0.1,1.4,0.3,2c0.2,0.5,0.6,0.9,1.1,1.2h-6.3c0.5-0.3,0.9-0.7,1.1-1.2
		c0.2-0.6,0.3-1.3,0.3-2V15.8c0-0.7-0.1-1.3-0.3-2c-0.2-0.5-0.6-0.9-1-1.1h10.4c1.3,0,2.5,0,3.8,0.2c0.7,0.1,1.4,0.3,2,0.5
		c0.8,0.4,1.5,1,1.9,1.7c0.5,0.8,0.7,1.7,0.7,2.6c0,1.2-0.4,2.3-1.3,3.2c-1,0.9-2.3,1.5-3.7,1.7c0.7,0.3,1.3,0.7,1.9,1.2
		c0.7,0.7,1.2,1.4,1.7,2.2l0.6,1c0.7,1.2,1.5,2.3,2.6,3.2h-6.3c0.1-0.1,0.2-0.2,0.3-0.4c0.1-0.2,0.1-0.4,0.1-0.6
		c0-0.6-0.2-1.1-0.4-1.6c-0.3-0.7-0.7-1.3-1.2-1.8c-0.6-0.8-1.4-1.5-2.3-2c-0.9-0.4-1.8-0.6-2.8-0.6h-3.2V27.1z"/>
	<path class="st3" d="M74.2,15.1l0.2,12c0,0.7,0.1,1.4,0.3,2c0.2,0.5,0.6,0.9,1,1.1h-6c0.5-0.2,0.9-0.6,1.1-1.1
		c0.2-0.6,0.4-1.3,0.3-2V15.8c0-0.7-0.1-1.4-0.3-2c-0.2-0.5-0.6-0.9-1.1-1.1h7c0,0.1-0.1,0.2-0.1,0.2c0,0.1,0,0.1,0,0.2
		c0,0.1,0,0.1,0,0.2c0.1,0.1,0.1,0.2,0.2,0.3l8.7,13.7l-0.1-11.5c0-0.7-0.1-1.4-0.3-2c-0.2-0.5-0.6-0.9-1.1-1.1h5.8
		c-0.4,0.2-0.8,0.6-1,1c-0.2,0.6-0.3,1.3-0.3,2v12.9c0,0.3,0,0.6,0.1,0.9c0.1,0.2,0.2,0.5,0.3,0.7h-5.7c0.1-0.1,0.1-0.2,0.1-0.3
		c0-0.1,0-0.2,0-0.2c0-0.1,0-0.1-0.1-0.2c-0.1-0.1-0.1-0.2-0.2-0.3L74.2,15.1z"/>
</g>
</svg>
