<svg id="Layer_1" data-name="Layer 1" xmlns="http://www.w3.org/2000/svg" xmlns:xlink="http://www.w3.org/1999/xlink" viewBox="0 0 200 50"><defs><style>.cls-1{fill:none;}.cls-2{clip-path:url(#clip-path);}.cls-3{fill:#f70;}.cls-4{clip-path:url(#clip-path-2);}.cls-5{fill:#273755;}</style><clipPath id="clip-path"><rect class="cls-1" x="137.98" y="4.5" width="18.67" height="41"/></clipPath><clipPath id="clip-path-2"><rect class="cls-1" x="127.11" y="15.31" width="41" height="20"/></clipPath></defs><g id="eceb01440c"><g class="cls-2"><path class="cls-3" d="M147.56,45.41c-5.17,0-9.06-8.8-9.06-20.46S142.39,4.5,147.56,4.5s9.06,8.79,9.06,20.45S152.72,45.41,147.56,45.41Zm0-38.27c-3,0-6.43,7.31-6.43,17.81s3.39,17.82,6.43,17.82S154,35.45,154,25,150.6,7.14,147.56,7.14Z"/></g><g class="cls-4"><path class="cls-3" d="M147.56,34c-11.66,0-20.45-3.9-20.45-9.06s8.79-9.06,20.45-9.06S168,19.79,168,25,159.22,34,147.56,34Zm0-15.48c-10.5,0-17.82,3.38-17.82,6.42s7.32,6.43,17.82,6.43S165.38,28,165.38,25,158.06,18.53,147.56,18.53Z"/></g><path class="cls-5" d="M158.06,40.76c-4.49,0-11.13-3.73-16.91-9.51a38.69,38.69,0,0,1-8.24-11.59c-1.75-4.11-1.68-7.41.19-9.28a5.45,5.45,0,0,1,4-1.45c4.49,0,11.13,3.73,16.91,9.51,8.24,8.24,11.7,17.22,8.05,20.87A5.45,5.45,0,0,1,158.06,40.76Zm-21-29.2a2.9,2.9,0,0,0-2.1.68c-1,1-.89,3.42.38,6.39A35.79,35.79,0,0,0,143,29.39c5.22,5.22,11.26,8.74,15,8.74a2.82,2.82,0,0,0,2.09-.69c2.16-2.14-.63-9.71-8.05-17.14C146.87,15.07,140.83,11.56,137.06,11.56Z"/><path class="cls-5" d="M137.06,40.76a5.37,5.37,0,0,1-4-1.45c-3.65-3.66-.19-12.63,8.05-20.87,5.78-5.78,12.42-9.51,16.91-9.51a5.39,5.39,0,0,1,4,1.45c1.87,1.87,1.94,5.17.19,9.28A38.69,38.69,0,0,1,154,31.25C148.19,37,141.55,40.76,137.06,40.76Zm21-29.2c-3.77,0-9.82,3.51-15,8.74-7.43,7.42-10.21,15-8.06,17.14a2.84,2.84,0,0,0,2.1.69c3.77,0,9.81-3.52,15-8.74a35.79,35.79,0,0,0,7.68-10.76c1.27-3,1.4-5.36.38-6.39A2.9,2.9,0,0,0,158.06,11.56Z"/><path class="cls-5" d="M150.76,24.94a3.47,3.47,0,1,1-3.46-3.47A3.46,3.46,0,0,1,150.76,24.94Z"/><path class="cls-5" d="M36.38,19.21V31.3a5,5,0,0,0,.33,2,2.36,2.36,0,0,0,1.06,1.15H31.89A2.43,2.43,0,0,0,33,33.3a5,5,0,0,0,.33-2V20.07A5.08,5.08,0,0,0,33,18a2.39,2.39,0,0,0-1.07-1.13h7.23a1.82,1.82,0,0,0-.13.3.8.8,0,0,0-.05.26,1,1,0,0,0,.05.27,2.78,2.78,0,0,0,.13.37l5.34,13.16,5.45-13.18a3.19,3.19,0,0,0,.11-.34.73.73,0,0,0,0-.22,1.29,1.29,0,0,0,0-.25,3.17,3.17,0,0,0-.16-.37h7.37A2.39,2.39,0,0,0,56.16,18a5.08,5.08,0,0,0-.33,2V31.3a5.15,5.15,0,0,0,.29,1.93,3.1,3.1,0,0,0,1,1.22H51.21a3.1,3.1,0,0,0,1-1.22,5,5,0,0,0,.29-1.93V19.51l-6,13.82-.06.14a1.65,1.65,0,0,0-.11.45.79.79,0,0,0,0,.23,2.27,2.27,0,0,0,.13.3H42.35c0-.12.06-.23.09-.32a1.15,1.15,0,0,0,.05-.15,2.2,2.2,0,0,0-.19-.61l0-.07Z"/><path class="cls-5" d="M59,34.45A2.39,2.39,0,0,0,60,33.32a4.87,4.87,0,0,0,.33-2V20A4.84,4.84,0,0,0,60,18.05,2.44,2.44,0,0,0,59,16.91H77c-.08.29-.14.51-.17.64a1.6,1.6,0,0,0,0,.33,5.2,5.2,0,0,0,.33,1.19c.23.63.41,1.17.53,1.62a8.47,8.47,0,0,0-2.68-1,20.27,20.27,0,0,0-3.81-.3H63.84v4.7H72.1a8,8,0,0,0,1.22-.1,6.49,6.49,0,0,0,1.14-.34l-1.21,2a1.67,1.67,0,0,1-.71.66,2.31,2.31,0,0,1-1.06.22H63.84V32h7.59a16.71,16.71,0,0,0,4-.45,8,8,0,0,0,2.9-1.27c-.15.4-.38,1-.7,1.7a4.94,4.94,0,0,0-.48,1.49,4.09,4.09,0,0,0,0,.47c0,.17.06.36.11.56Z"/><path class="cls-5" d="M84.47,25h5.6a7.34,7.34,0,0,0,3.6-.65,2.31,2.31,0,0,0,1.07-2.13,2.39,2.39,0,0,0-1-2.15,7.23,7.23,0,0,0-3.58-.61H84.47Zm0,6.33a5.15,5.15,0,0,0,.32,2,2.4,2.4,0,0,0,1.08,1.15H79.61a2.42,2.42,0,0,0,1.07-1.15,5.08,5.08,0,0,0,.32-2V20a4.67,4.67,0,0,0-.34-1.95,2.42,2.42,0,0,0-1-1.14H90.07a31.63,31.63,0,0,1,3.77.16,6.29,6.29,0,0,1,2,.55,4.51,4.51,0,0,1,1.92,1.74,4.91,4.91,0,0,1,.67,2.6,4.24,4.24,0,0,1-1.29,3.16,6.88,6.88,0,0,1-3.66,1.7A6.27,6.27,0,0,1,95.33,28a11.86,11.86,0,0,1,1.73,2.23l.64,1a12,12,0,0,0,2.55,3.18H94a1,1,0,0,0,.29-.37,1.5,1.5,0,0,0,.09-.58,4,4,0,0,0-.44-1.63A9.75,9.75,0,0,0,92.74,30a7.57,7.57,0,0,0-2.32-2,6.13,6.13,0,0,0-2.77-.57H84.47Z"/><path class="cls-5" d="M105.42,19.35l.22,12a5.31,5.31,0,0,0,.34,2,2.36,2.36,0,0,0,1,1.11h-6a2.34,2.34,0,0,0,1.07-1.13,5,5,0,0,0,.33-2V20.07a5,5,0,0,0-.33-2,2.36,2.36,0,0,0-1.07-1.14h7a1.46,1.46,0,0,0-.1.23.45.45,0,0,0,0,.17.46.46,0,0,0,0,.19,2.8,2.8,0,0,0,.19.34l8.67,13.74-.06-11.52a5.15,5.15,0,0,0-.33-2,2.37,2.37,0,0,0-1.06-1.13h5.81a2.4,2.4,0,0,0-1,1,4.89,4.89,0,0,0-.3,2V32.83a3.79,3.79,0,0,0,.09.92,2.58,2.58,0,0,0,.32.7h-5.72a2.34,2.34,0,0,0,.14-.27.8.8,0,0,0,0-.23.49.49,0,0,0-.06-.2,2,2,0,0,0-.19-.33Z"/></g></svg>