<svg id="Layer_1" data-name="Layer 1" xmlns="http://www.w3.org/2000/svg" xmlns:xlink="http://www.w3.org/1999/xlink" viewBox="0 0 137.53 41.5"><defs><style>.cls-1{fill:none;}.cls-2{clip-path:url(#clip-path);}.cls-3{fill:#f70;}.cls-4{clip-path:url(#clip-path-2);}.cls-5{fill:#273755;}</style><clipPath id="clip-path"><rect class="cls-1" x="106.74" y="0.5" width="18.67" height="41"/></clipPath><clipPath id="clip-path-2"><rect class="cls-1" x="95.87" y="11.31" width="41" height="20"/></clipPath></defs><g id="eceb01440c"><g class="cls-2"><path class="cls-3" d="M116.32,41.41c-5.17,0-9.06-8.8-9.06-20.46S111.15.5,116.32.5s9.06,8.79,9.06,20.45S121.48,41.41,116.32,41.41Zm0-38.27c-3,0-6.43,7.31-6.43,17.81s3.39,17.82,6.43,17.82,6.44-7.32,6.44-17.77S119.36,3.14,116.32,3.14Z"/></g><g class="cls-4"><path class="cls-3" d="M116.32,30c-11.66,0-20.45-3.9-20.45-9.06s8.79-9.06,20.45-9.06,20.44,3.91,20.44,9.12S128,30,116.32,30Zm0-15.48c-10.5,0-17.82,3.38-17.82,6.42s7.32,6.43,17.82,6.43S134.14,24,134.14,21s-7.32-6.47-17.82-6.47Z"/></g><path class="cls-5" d="M126.82,36.76c-4.49,0-11.13-3.73-16.91-9.51a38.88,38.88,0,0,1-8.24-11.59c-1.75-4.11-1.68-7.41.19-9.28a5.44,5.44,0,0,1,4-1.45c4.49,0,11.13,3.73,16.91,9.51,8.24,8.24,11.7,17.22,8,20.87A5.41,5.41,0,0,1,126.82,36.76Zm-21-29.2a2.93,2.93,0,0,0-2.1.68c-1,1-.89,3.42.38,6.39a36.06,36.06,0,0,0,7.66,10.76c5.22,5.22,11.26,8.74,15,8.74a2.83,2.83,0,0,0,2.09-.69c2.16-2.14-.63-9.71-8-17.14C115.63,11.07,109.59,7.56,105.82,7.56Z"/><path class="cls-5" d="M105.82,36.76a5.39,5.39,0,0,1-4-1.45c-3.65-3.66-.19-12.63,8.05-20.87,5.78-5.78,12.42-9.51,16.91-9.51a5.36,5.36,0,0,1,4,1.45c1.87,1.87,1.94,5.17.19,9.28a38.44,38.44,0,0,1-8.21,11.59C117,33,110.31,36.76,105.82,36.76Zm21-29.2c-3.77,0-9.82,3.51-15,8.74-7.43,7.42-10.21,15-8.06,17.14a2.88,2.88,0,0,0,2.1.69c3.77,0,9.81-3.52,15-8.74a35.6,35.6,0,0,0,7.68-10.76c1.27-3,1.4-5.36.38-6.39A2.9,2.9,0,0,0,126.82,7.56Z"/><path class="cls-5" d="M119.52,20.94a3.47,3.47,0,1,1-3.47-3.47h0a3.45,3.45,0,0,1,3.46,3.46Z"/><path class="cls-5" d="M5.14,15.21V27.3a5.26,5.26,0,0,0,.33,2,2.42,2.42,0,0,0,1.06,1.15H.65A2.43,2.43,0,0,0,1.76,29.3a4.9,4.9,0,0,0,.33-2V16.07A4.87,4.87,0,0,0,1.76,14,2.35,2.35,0,0,0,.69,12.87H7.92c0,.1-.09.2-.13.3a1.09,1.09,0,0,0,0,.26,2.56,2.56,0,0,0,0,.27c0,.13.08.25.13.37l5.34,13.16,5.45-13.18a1.93,1.93,0,0,0,.11-.34.41.41,0,0,0,0-.22,1,1,0,0,0,0-.25,1.73,1.73,0,0,0-.16-.37H26A2.48,2.48,0,0,0,24.92,14a5.26,5.26,0,0,0-.33,2V27.3a5.48,5.48,0,0,0,.29,1.93,3.14,3.14,0,0,0,1,1.22H20a3,3,0,0,0,1-1.22,4.7,4.7,0,0,0,.29-1.93V15.51l-6,13.82-.06.14a2.28,2.28,0,0,0-.11.45.89.89,0,0,0,0,.23c0,.1.08.2.13.3H11.11a1,1,0,0,1,.09-.32.88.88,0,0,0,.05-.15,1.88,1.88,0,0,0-.19-.61V29.3Z"/><path class="cls-5" d="M27.76,30.45a2.39,2.39,0,0,0,1-1.13,4.74,4.74,0,0,0,.33-2V16a4.64,4.64,0,0,0-.33-1.95,2.36,2.36,0,0,0-1-1.14h18c-.08.29-.14.51-.17.64a1.82,1.82,0,0,0,0,.33,6,6,0,0,0,.33,1.19c.23.63.41,1.17.53,1.62a8.5,8.5,0,0,0-2.68-1,20.2,20.2,0,0,0-3.81-.3H32.6v4.7h8.26a8.25,8.25,0,0,0,1.22-.1,6.25,6.25,0,0,0,1.14-.34l-1.21,2a1.57,1.57,0,0,1-.71.66,2.27,2.27,0,0,1-1.06.22H32.6V28h7.59a16.81,16.81,0,0,0,4-.45,8,8,0,0,0,2.9-1.27c-.15.4-.38,1-.7,1.7a5.2,5.2,0,0,0-.48,1.49v.47a2.51,2.51,0,0,0,.11.56Z"/><path class="cls-5" d="M53.23,21h5.6a7.29,7.29,0,0,0,3.6-.65,2.3,2.3,0,0,0,1.07-2.13,2.35,2.35,0,0,0-1-2.15,7.32,7.32,0,0,0-3.58-.61H53.23Zm0,6.33a5.45,5.45,0,0,0,.32,2,2.46,2.46,0,0,0,1.08,1.15H48.37a2.35,2.35,0,0,0,1.07-1.15,5.06,5.06,0,0,0,.32-2V16a4.49,4.49,0,0,0-.34-1.95,2.36,2.36,0,0,0-1-1.14H58.83a31.61,31.61,0,0,1,3.77.16,6.26,6.26,0,0,1,2,.55,4.43,4.43,0,0,1,1.92,1.74,4.77,4.77,0,0,1,.67,2.6,4.19,4.19,0,0,1-1.29,3.16,6.86,6.86,0,0,1-3.66,1.7A6.08,6.08,0,0,1,64.09,24a11.3,11.3,0,0,1,1.73,2.23l.64,1A12.27,12.27,0,0,0,69,30.41H62.76a.94.94,0,0,0,.29-.37,1.44,1.44,0,0,0,.09-.58,3.75,3.75,0,0,0-.44-1.63A9.62,9.62,0,0,0,61.5,26a7.33,7.33,0,0,0-2.32-2,6.12,6.12,0,0,0-2.77-.57H53.23Z"/><path class="cls-5" d="M74.18,15.35l.22,12a5.47,5.47,0,0,0,.34,2,2.4,2.4,0,0,0,1,1.11h-6a2.26,2.26,0,0,0,1.07-1.13,4.9,4.9,0,0,0,.33-2V16.07a4.9,4.9,0,0,0-.33-2,2.32,2.32,0,0,0-1.07-1.14h7a1.6,1.6,0,0,0-.1.23.49.49,0,0,0,0,.17.61.61,0,0,0,0,.19,3.72,3.72,0,0,0,.19.34L85.5,27.6l-.06-11.52a4.9,4.9,0,0,0-.33-2A2.37,2.37,0,0,0,84.05,13h5.81a2.47,2.47,0,0,0-1,1,5,5,0,0,0-.3,2V28.83a4.7,4.7,0,0,0,.09.92,3,3,0,0,0,.32.7H83.25a1.74,1.74,0,0,0,.14-.27.45.45,0,0,0,0-.23.36.36,0,0,0-.06-.2,1.35,1.35,0,0,0-.19-.33Z"/></g></svg>